<?xml version="1.0" encoding="UTF-8" standalone="no"?>
<!-- Created with Inkscape (http://www.inkscape.org/) -->

<svg
   width="96.546089mm"
   height="25.232077mm"
   viewBox="0 0 96.54609 25.232077"
   version="1.1"
   id="svg5"
   xml:space="preserve"
   sodipodi:docname="splash.svg"
   inkscape:version="1.2 (dc2aedaf03, 2022-05-15)"
   xmlns:inkscape="http://www.inkscape.org/namespaces/inkscape"
   xmlns:sodipodi="http://sodipodi.sourceforge.net/DTD/sodipodi-0.dtd"
   xmlns:xlink="http://www.w3.org/1999/xlink"
   xmlns="http://www.w3.org/2000/svg"
   xmlns:svg="http://www.w3.org/2000/svg"><sodipodi:namedview
     id="namedview7"
     pagecolor="#ffffff"
     bordercolor="#666666"
     borderopacity="1.0"
     inkscape:showpageshadow="2"
     inkscape:pageopacity="0.0"
     inkscape:pagecheckerboard="0"
     inkscape:deskcolor="#d1d1d1"
     inkscape:document-units="mm"
     showgrid="false"
     showguides="true"
     inkscape:zoom="0.95497112"
     inkscape:cx="167.54433"
     inkscape:cy="167.02076"
     inkscape:window-width="1920"
     inkscape:window-height="1019"
     inkscape:window-x="0"
     inkscape:window-y="0"
     inkscape:window-maximized="1"
     inkscape:current-layer="layer1" /><defs
     id="defs2"><linearGradient
       id="linearGradient40444"><stop
         id="stop40440"
         offset="0"
         style="stop-color:#003398;stop-opacity:0.85882354" /><stop
         id="stop40442"
         offset="1"
         style="stop-color:#002060;stop-opacity:1;" /></linearGradient><linearGradient
       id="linearGradient40246"><stop
         id="stop40242"
         offset="0"
         style="stop-color:#ffffff;stop-opacity:1" /><stop
         id="stop40244"
         offset="1"
         style="stop-color:#002060;stop-opacity:1;" /></linearGradient><linearGradient
       id="linearGradient2299"><stop
         id="stop39529"
         offset="0"
         style="stop-color:#002060;stop-opacity:0.85858583" /><stop
         id="stop39531"
         offset="1"
         style="stop-color:#002060;stop-opacity:1;" /></linearGradient><radialGradient
       xlink:href="#linearGradient2299"
       id="radialGradient2307"
       cx="105.0006"
       cy="148.50002"
       fx="105.0006"
       fy="148.50002"
       r="105.0006"
       gradientTransform="matrix(1.282963,-1.1606819e-8,1.4743468e-8,1.6296734,-29.711881,-93.506521)"
       gradientUnits="userSpaceOnUse" /><radialGradient
       inkscape:collect="always"
       xlink:href="#linearGradient40444"
       id="radialGradient39558"
       cx="26.015224"
       cy="22.541887"
       fx="26.050617"
       fy="31.361525"
       r="32"
       gradientUnits="userSpaceOnUse"
       gradientTransform="matrix(0.45539055,0,0,0.45047859,60.807146,75.879789)" /></defs><g
     inkscape:label="Layer 1"
     inkscape:groupmode="layer"
     id="layer1"
     transform="translate(-59.570023,-74.389061)"><rect
       style="mix-blend-mode:normal;fill:url(#radialGradient39558);fill-opacity:1;stroke:none;stroke-width:0.908735"
       id="rect872"
       width="96.546089"
       height="25.232077"
       x="59.570023"
       y="74.389061" /><g
       style="fill:#ffffff;fill-opacity:1;stroke:none;stroke-opacity:1"
       transform="matrix(0.35595108,0,0,0.35595107,53.787752,71.50955)"
       id="g3897"><path
         d="m 81.659731,34.766124 c -1.481104,-3.501377 -3.600742,-6.645611 -6.299462,-9.345963 -2.700351,-2.699537 -5.8454,-4.819177 -9.345964,-6.300278 -3.62721,-1.534855 -7.478397,-2.31226 -11.446868,-2.31226 -3.967657,0 -7.819659,0.777405 -11.446055,2.31226 -3.501377,1.481101 -6.645204,3.600741 -9.345556,6.300278 -2.69913,2.700352 -4.819177,5.844994 -6.29987,9.345963 -1.534449,3.626396 -2.312668,7.477177 -2.312668,11.445648 v 23.430061 h 5.00121 V 46.212179 c 0,-3.295317 0.645869,-6.490455 1.916839,-9.498267 1.229024,-2.904782 2.989079,-5.515543 5.231295,-7.756945 2.240588,-2.241809 4.851349,-4.002271 7.756945,-5.230888 3.007405,-1.272192 6.202543,-1.917246 9.49786,-1.917246 3.295317,0 6.49127,0.645054 9.498265,1.917246 2.905597,1.228617 5.515139,2.989079 7.758166,5.230888 2.241407,2.241402 4.001871,4.852163 5.231296,7.756945 1.270967,3.007812 1.915211,6.20295 1.915211,9.498267 v 23.430062 h 5.002023 V 46.212179 c 0,-3.968471 -0.779443,-7.819252 -2.312667,-11.446055"
         id="path3063"
         style="fill:#ffffff;fill-opacity:1;stroke:none;stroke-opacity:1" /><path
         d="m 62.833827,27.173293 c -2.614017,-1.135361 -5.394594,-1.712001 -8.265983,-1.712001 -2.800123,0 -5.517172,0.548541 -8.077436,1.632184 -2.471896,1.044141 -4.6909,2.54031 -6.595521,4.445338 -1.905436,1.905436 -3.40079,4.124033 -4.446153,6.595521 -1.082829,2.559043 -1.63137,5.27772 -1.63137,8.077844 v 19.922578 l 4.999988,-4.804923 V 46.212179 c 0,-2.128192 0.416598,-4.189597 1.237577,-6.129648 0.793287,-1.875708 1.929055,-3.560425 3.376763,-5.006911 1.446486,-1.447708 3.131203,-2.583884 5.006504,-3.376357 1.940458,-0.821386 4.002678,-1.237576 6.129648,-1.237576 2.180317,0 4.290591,0.43696 6.271365,1.298254 1.916021,0.831974 3.623954,2.021497 5.079396,3.533548 l 3.603591,-3.466355 c -1.914799,-1.991769 -4.164755,-3.55676 -6.688369,-4.653841"
         id="path3065"
         style="fill:#ffffff;fill-opacity:1;stroke:none;stroke-opacity:1" /><polygon
         points="132.648,19.88 132.648,14.317 130.762,14.317 130.762,13.01 136.094,13.01 136.094,14.317 134.209,14.317 134.209,19.88 "
         id="polygon3067"
         transform="matrix(0.40723148,0,0,0.40723148,23.521738,15.817643)"
         style="fill:#ffffff;fill-opacity:1;stroke:none;stroke-opacity:1" /><path
         d="m 79.164622,21.115725 h 0.669081 l 0.467503,1.256716 0.1686,0.489085 h 0.0167 l 0.16696,-0.489085 0.455693,-1.256716 h 0.663385 v 2.79768 h -0.586821 v -1.026223 c 0,-0.06882 0.0015,-0.14416 0.0082,-0.227236 0.0057,-0.08308 0.01262,-0.167372 0.02242,-0.251261 0.0085,-0.08348 0.0167,-0.167372 0.02565,-0.248819 0.0082,-0.08185 0.01586,-0.156377 0.02565,-0.225199 h -0.01749 l -0.231306,0.647906 -0.428819,1.084864 h -0.253702 l -0.428813,-1.084864 -0.222757,-0.647906 h -0.01834 c 0.01019,0.06882 0.01834,0.143346 0.02689,0.225199 0.0085,0.08145 0.01591,0.165336 0.02321,0.248819 0.0074,0.08389 0.01342,0.168186 0.01993,0.251261 0.0065,0.08267 0.0082,0.158413 0.0082,0.227236 v 1.026223 h -0.579078 v -2.79768 z"
         id="path3069"
         style="fill:#ffffff;fill-opacity:1;stroke:none;stroke-opacity:1" /><path
         d="m 59.764932,51.162077 c -1.308842,1.373185 -3.151157,2.232851 -5.197902,2.232851 -3.966842,0 -7.183563,-3.2155 -7.183563,-7.183156 0,-3.967657 3.216313,-7.183563 7.183563,-7.183563 2.025976,0 3.851595,0.840932 5.157993,2.188869 l 3.581192,-3.425224 c -2.207193,-2.29027 -5.305003,-3.718431 -8.739185,-3.718431 -6.703845,0 -12.138349,5.434504 -12.138349,12.138349 0,6.703437 5.434504,12.138348 12.138349,12.138348 3.446807,0 6.555612,-1.438749 8.765658,-3.744493 z"
         id="path3071"
         style="fill:#ffffff;fill-opacity:1;stroke:none;stroke-opacity:1" /><path
         d="M 73.724014,38.134335 C 73.241039,36.992051 72.657065,35.907186 71.985947,34.87852 l -3.691959,3.546986 c 0.304609,0.534287 0.583153,1.085271 0.823829,1.657025 0.309494,0.731795 0.560756,1.480286 0.754193,2.242624 h 5.116863 c -0.272028,-1.433863 -0.691075,-2.834739 -1.264859,-4.19082"
         id="path3073"
         style="fill:#ffffff;fill-opacity:1;stroke:none;stroke-opacity:1" /><path
         d="m 70.350915,46.050101 c 0,0.05375 0.0035,0.107916 0.0035,0.161671 v 15.117655 l 5.00159,4.804923 V 46.212179 c 0,-0.05416 -0.0035,-0.108324 -0.004,-0.161671 h -5.000899 z"
         id="path3075"
         style="fill:#ffffff;fill-opacity:1;stroke:none;stroke-opacity:1" /></g><g
       aria-label="ArC TWO"
       id="text482"
       style="font-size:17.869px;line-height:1.25;fill:#ffffff;stroke-width:0.446725"
       transform="matrix(0.5,0,0,0.5,53.921534,2.5676242)"><path
         d="m 85.920693,165.09912 h 3.03773 l -5.592997,-12.5083 h -2.85904 l -5.575128,12.5083 h 2.966254 l 1.107878,-2.68035 h 5.807425 z m -5.986115,-4.87824 1.983459,-4.78889 1.983459,4.78889 z"
         style="font-weight:bold;font-family:Montserrat;-inkscape-font-specification:'Montserrat Bold'"
         id="path1507" /><path
         d="m 92.728795,156.7543 v -1.2687 h -2.662481 v 9.61352 h 2.787564 v -4.53872 c 0,-1.84051 1.018533,-2.68035 2.555267,-2.68035 0.214428,0 0.393118,0.0179 0.625415,0.0357 v -2.57313 c -1.483127,0 -2.626743,0.48246 -3.305765,1.41165 z"
         style="font-weight:bold;font-family:Montserrat;-inkscape-font-specification:'Montserrat Bold'"
         id="path1509" /><path
         d="m 103.59313,165.31355 c 2.18002,0 3.98479,-0.78624 5.16414,-2.23363 l -1.85837,-1.71542 c -0.83984,0.9828 -1.89412,1.48313 -3.14495,1.48313 -2.34083,0 -4.002651,-1.64395 -4.002651,-4.00266 0,-2.35871 1.661821,-4.00265 4.002651,-4.00265 1.25083,0 2.30511,0.50033 3.14495,1.46525 l 1.85837,-1.71542 c -1.17935,-1.42952 -2.98412,-2.21576 -5.14627,-2.21576 -3.895439,0 -6.790217,2.69822 -6.790217,6.46858 0,3.77036 2.894778,6.46858 6.772347,6.46858 z"
         style="font-weight:bold;font-family:Montserrat;-inkscape-font-specification:'Montserrat Bold'"
         id="path1511" /><path
         d="m 118.35294,165.09912 h 2.89478 v -10.14959 h 4.00265 v -2.35871 h -10.90009 v 2.35871 h 4.00266 z"
         style="font-weight:bold;font-family:Montserrat;-inkscape-font-specification:'Montserrat Bold'"
         id="path1513" /><path
         d="m 142.70838,152.59082 -2.91265,8.86303 -2.85904,-8.86303 h -2.68035 l -2.94838,8.79155 -2.8233,-8.79155 h -3.002 l 4.10987,12.5083 h 3.09134 l 2.84117,-8.4699 2.75183,8.4699 h 3.1092 l 4.092,-12.5083 z"
         style="font-weight:bold;font-family:Montserrat;-inkscape-font-specification:'Montserrat Bold'"
         id="path1515" /><path
         d="m 153.00092,165.31355 c 3.93118,0 6.84382,-2.73396 6.84382,-6.46858 0,-3.73462 -2.91264,-6.46858 -6.84382,-6.46858 -3.94905,0 -6.84383,2.75183 -6.84383,6.46858 0,3.71675 2.89478,6.46858 6.84383,6.46858 z m 0,-2.46592 c -2.23363,0 -3.91332,-1.62608 -3.91332,-4.00266 0,-2.37658 1.67969,-4.00265 3.91332,-4.00265 2.23362,0 3.91331,1.62607 3.91331,4.00265 0,2.37658 -1.67969,4.00266 -3.91331,4.00266 z"
         style="font-weight:bold;font-family:Montserrat;-inkscape-font-specification:'Montserrat Bold'"
         id="path1517" /></g><g
       aria-label="Next Generation Multi-Channel
Characterisation Platform"
       id="text1295"
       style="font-size:7.1052px;line-height:1.25;fill:#ffffff;stroke-width:0.562335"
       transform="matrix(0.5,0,0,0.5,53.921534,18.59105)"><path
         d="m 78.510443,139.95429 v 3.36787 l -2.742607,-3.36787 H 75.00758 v 4.97364 h 0.916571 v -3.36786 l 2.742607,3.36786 h 0.760256 v -4.97364 z"
         style="font-weight:600;font-family:Montserrat;-inkscape-font-specification:'Montserrat Semi-Bold'"
         id="path1569" /><path
         d="m 84.244336,143.05216 c 0,-1.18657 -0.809993,-1.96104 -1.918404,-1.96104 -1.129727,0 -1.961035,0.81 -1.961035,1.93972 0,1.12973 0.824203,1.94683 2.096034,1.94683 0.653678,0 1.186568,-0.21316 1.527618,-0.61815 l -0.476049,-0.5471 c -0.269997,0.2771 -0.603942,0.4121 -1.030254,0.4121 -0.660783,0 -1.122621,-0.35526 -1.229199,-0.90947 h 2.977078 c 0.0071,-0.0853 0.01421,-0.19184 0.01421,-0.26289 z m -1.918404,-1.25052 c 0.582626,0 1.001833,0.37658 1.072885,0.92368 h -2.152875 c 0.08526,-0.5542 0.504469,-0.92368 1.07999,-0.92368 z"
         style="font-weight:600;font-family:Montserrat;-inkscape-font-specification:'Montserrat Semi-Bold'"
         id="path1571" /><path
         d="m 88.407985,144.92793 -1.484987,-1.93972 1.42104,-1.85445 h -0.959202 l -0.930781,1.24341 -0.930781,-1.24341 h -0.987623 l 1.413935,1.86866 -1.477881,1.92551 h 0.980517 l 0.980518,-1.31446 0.973412,1.31446 z"
         style="font-weight:600;font-family:Montserrat;-inkscape-font-specification:'Montserrat Semi-Bold'"
         id="path1573" /><path
         d="m 91.09375,144.08952 c -0.134999,0.10658 -0.312629,0.15631 -0.497364,0.15631 -0.34105,0 -0.525785,-0.19894 -0.525785,-0.56841 v -1.80472 h 1.016044 v -0.71052 h -1.016044 v -0.86684 h -0.88815 v 0.86684 h -0.625257 v 0.71052 h 0.625257 v 1.82603 c 0,0.83842 0.476049,1.27894 1.307357,1.27894 0.319734,0 0.639468,-0.0853 0.852624,-0.25579 z"
         style="font-weight:600;font-family:Montserrat;-inkscape-font-specification:'Montserrat Semi-Bold'"
         id="path1575" /><path
         d="m 97.516843,143.9332 c -0.319734,0.18474 -0.667888,0.25579 -1.023148,0.25579 -1.05157,0 -1.797616,-0.73894 -1.797616,-1.74788 0,-1.03025 0.746046,-1.74788 1.804721,-1.74788 0.53289,0 0.980517,0.17763 1.371303,0.56842 l 0.582627,-0.56842 c -0.468943,-0.53289 -1.165253,-0.80999 -1.996561,-0.80999 -1.556039,0 -2.692871,1.07289 -2.692871,2.55787 0,1.48499 1.136832,2.55787 2.67866,2.55787 0.703415,0 1.428145,-0.21315 1.946825,-0.63236 v -1.98235 h -0.87394 z"
         style="font-weight:600;font-family:Montserrat;-inkscape-font-specification:'Montserrat Semi-Bold'"
         id="path1577" /><path
         d="m 103.08731,143.05216 c 0,-1.18657 -0.80999,-1.96104 -1.9184,-1.96104 -1.12973,0 -1.961035,0.81 -1.961035,1.93972 0,1.12973 0.824205,1.94683 2.096035,1.94683 0.65368,0 1.18657,-0.21316 1.52762,-0.61815 l -0.47605,-0.5471 c -0.27,0.2771 -0.60394,0.4121 -1.03026,0.4121 -0.66078,0 -1.12262,-0.35526 -1.22919,-0.90947 h 2.97707 c 0.007,-0.0853 0.0142,-0.19184 0.0142,-0.26289 z m -1.9184,-1.25052 c 0.58263,0 1.00183,0.37658 1.07289,0.92368 h -2.15288 c 0.0853,-0.5542 0.50447,-0.92368 1.07999,-0.92368 z"
         style="font-weight:600;font-family:Montserrat;-inkscape-font-specification:'Montserrat Semi-Bold'"
         id="path1579" /><path
         d="m 106.09281,141.09112 c -0.5542,0 -1.01604,0.18474 -1.30735,0.53289 v -0.49025 h -0.84552 v 3.79417 h 0.88815 v -1.9184 c 0,-0.76026 0.42631,-1.14394 1.05867,-1.14394 0.56842,0 0.90236,0.32684 0.90236,1.00183 v 2.06051 h 0.88815 v -2.17419 c 0,-1.14394 -0.67499,-1.66262 -1.58446,-1.66262 z"
         style="font-weight:600;font-family:Montserrat;-inkscape-font-specification:'Montserrat Semi-Bold'"
         id="path1581" /><path
         d="m 112.3809,143.05216 c 0,-1.18657 -0.80999,-1.96104 -1.9184,-1.96104 -1.12973,0 -1.96103,0.81 -1.96103,1.93972 0,1.12973 0.8242,1.94683 2.09603,1.94683 0.65368,0 1.18657,-0.21316 1.52762,-0.61815 l -0.47605,-0.5471 c -0.27,0.2771 -0.60394,0.4121 -1.03025,0.4121 -0.66079,0 -1.12263,-0.35526 -1.2292,-0.90947 h 2.97707 c 0.007,-0.0853 0.0142,-0.19184 0.0142,-0.26289 z m -1.9184,-1.25052 c 0.58263,0 1.00183,0.37658 1.07289,0.92368 h -2.15288 c 0.0853,-0.5542 0.50447,-0.92368 1.07999,-0.92368 z"
         style="font-weight:600;font-family:Montserrat;-inkscape-font-specification:'Montserrat Semi-Bold'"
         id="path1583" /><path
         d="m 114.07905,141.68796 v -0.5542 h -0.84552 v 3.79417 h 0.88815 v -1.84024 c 0,-0.77447 0.42631,-1.17236 1.1013,-1.17236 0.0639,0 0.1279,0.007 0.20605,0.0213 v -0.84552 c -0.63236,0 -1.0942,0.19895 -1.34998,0.59684 z"
         style="font-weight:600;font-family:Montserrat;-inkscape-font-specification:'Montserrat Semi-Bold'"
         id="path1585" /><path
         d="m 117.36165,141.09112 c -0.61104,0 -1.20077,0.15632 -1.60577,0.46895 l 0.34815,0.64657 c 0.28421,-0.23447 0.72473,-0.37657 1.15105,-0.37657 0.63236,0 0.94499,0.30552 0.94499,0.8242 v 0.0568 h -0.98052 c -1.15104,0 -1.57735,0.49736 -1.57735,1.12973 0,0.66078 0.5471,1.13683 1.41393,1.13683 0.56842,0 0.98052,-0.18474 1.19367,-0.51158 v 0.46184 h 0.83842 v -2.22392 c 0,-1.09421 -0.63237,-1.61289 -1.72657,-1.61289 z m -0.12078,3.23998 c -0.45474,0 -0.72473,-0.20605 -0.72473,-0.52579 0,-0.2771 0.16341,-0.50447 0.76736,-0.50447 h 0.91657 v 0.44052 c -0.14921,0.39079 -0.52579,0.58974 -0.9592,0.58974 z"
         style="font-weight:600;font-family:Montserrat;-inkscape-font-specification:'Montserrat Semi-Bold'"
         id="path1587" /><path
         d="m 122.25714,144.08952 c -0.135,0.10658 -0.31263,0.15631 -0.49736,0.15631 -0.34105,0 -0.52579,-0.19894 -0.52579,-0.56841 v -1.80472 h 1.01604 v -0.71052 h -1.01604 v -0.86684 h -0.88815 v 0.86684 h -0.62526 v 0.71052 h 0.62526 v 1.82603 c 0,0.83842 0.47605,1.27894 1.30736,1.27894 0.31973,0 0.63947,-0.0853 0.85262,-0.25579 z"
         style="font-weight:600;font-family:Montserrat;-inkscape-font-specification:'Montserrat Semi-Bold'"
         id="path1589" /><path
         d="m 123.68528,140.5085 c 0.33395,0 0.56842,-0.24158 0.56842,-0.55421 0,-0.29131 -0.24158,-0.51157 -0.56842,-0.51157 -0.32684,0 -0.56841,0.23447 -0.56841,0.53289 0,0.29842 0.24157,0.53289 0.56841,0.53289 z m -0.44762,4.41943 h 0.88815 v -3.79417 h -0.88815 z"
         style="font-weight:600;font-family:Montserrat;-inkscape-font-specification:'Montserrat Semi-Bold'"
         id="path1591" /><path
         d="m 126.99631,144.97767 c 1.17946,0 2.02498,-0.80999 2.02498,-1.94683 0,-1.13683 -0.84552,-1.93972 -2.02498,-1.93972 -1.16526,0 -2.01788,0.80289 -2.01788,1.93972 0,1.13684 0.85262,1.94683 2.01788,1.94683 z m 0,-0.76026 c -0.63947,0 -1.12263,-0.46184 -1.12263,-1.18657 0,-0.72473 0.48316,-1.18656 1.12263,-1.18656 0.64657,0 1.12972,0.46183 1.12972,1.18656 0,0.72473 -0.48315,1.18657 -1.12972,1.18657 z"
         style="font-weight:600;font-family:Montserrat;-inkscape-font-specification:'Montserrat Semi-Bold'"
         id="path1593" /><path
         d="m 132.02679,141.09112 c -0.55421,0 -1.01605,0.18474 -1.30736,0.53289 v -0.49025 h -0.84552 v 3.79417 h 0.88815 v -1.9184 c 0,-0.76026 0.42631,-1.14394 1.05868,-1.14394 0.56841,0 0.90236,0.32684 0.90236,1.00183 v 2.06051 h 0.88815 v -2.17419 c 0,-1.14394 -0.675,-1.66262 -1.58446,-1.66262 z"
         style="font-weight:600;font-family:Montserrat;-inkscape-font-specification:'Montserrat Semi-Bold'"
         id="path1595" /><path
         d="m 142.22985,144.92793 -0.007,-4.97364 h -0.76026 l -1.93972,3.29682 -1.97524,-3.29682 h -0.76026 v 4.97364 h 0.88105 v -3.25418 l 1.63419,2.68577 h 0.4121 l 1.6342,-2.7284 0.007,3.29681 z"
         style="font-weight:600;font-family:Montserrat;-inkscape-font-specification:'Montserrat Semi-Bold'"
         id="path1597" /><path
         d="m 146.2727,141.13376 v 1.9184 c 0,0.76026 -0.4192,1.14394 -1.03736,1.14394 -0.56131,0 -0.88815,-0.32684 -0.88815,-1.01605 v -2.04629 h -0.88815 v 2.16708 c 0,1.14394 0.66079,1.67683 1.6342,1.67683 0.49026,0 0.93789,-0.18474 1.22209,-0.53289 v 0.48315 h 0.84552 v -3.79417 z"
         style="font-weight:600;font-family:Montserrat;-inkscape-font-specification:'Montserrat Semi-Bold'"
         id="path1599" /><path
         d="m 148.3261,144.92793 h 0.88815 v -5.27206 h -0.88815 z"
         style="font-weight:600;font-family:Montserrat;-inkscape-font-specification:'Montserrat Semi-Bold'"
         id="path1601" /><path
         d="m 152.59632,144.08952 c -0.135,0.10658 -0.31263,0.15631 -0.49736,0.15631 -0.34105,0 -0.52579,-0.19894 -0.52579,-0.56841 v -1.80472 h 1.01604 v -0.71052 h -1.01604 v -0.86684 h -0.88815 v 0.86684 h -0.62526 v 0.71052 h 0.62526 v 1.82603 c 0,0.83842 0.47605,1.27894 1.30736,1.27894 0.31973,0 0.63947,-0.0853 0.85262,-0.25579 z"
         style="font-weight:600;font-family:Montserrat;-inkscape-font-specification:'Montserrat Semi-Bold'"
         id="path1603" /><path
         d="m 154.02446,140.5085 c 0.33395,0 0.56842,-0.24158 0.56842,-0.55421 0,-0.29131 -0.24158,-0.51157 -0.56842,-0.51157 -0.32684,0 -0.56841,0.23447 -0.56841,0.53289 0,0.29842 0.24157,0.53289 0.56841,0.53289 z m -0.44762,4.41943 h 0.88815 v -3.79417 h -0.88815 z"
         style="font-weight:600;font-family:Montserrat;-inkscape-font-specification:'Montserrat Semi-Bold'"
         id="path1605" /><path
         d="m 155.43839,143.32216 h 1.95393 v -0.73894 h -1.95393 z"
         style="font-weight:600;font-family:Montserrat;-inkscape-font-specification:'Montserrat Semi-Bold'"
         id="path1607" /><path
         d="m 160.78861,144.99898 c 0.8171,0 1.51341,-0.29131 1.97524,-0.8313 l -0.59683,-0.56842 c -0.36237,0.39789 -0.81,0.58973 -1.32868,0.58973 -1.03025,0 -1.7763,-0.72473 -1.7763,-1.74788 0,-1.02315 0.74605,-1.74788 1.7763,-1.74788 0.51868,0 0.96631,0.19184 1.32868,0.58263 l 0.59683,-0.56131 c -0.46183,-0.54 -1.15814,-0.83131 -1.96814,-0.83131 -1.52762,0 -2.66445,1.07289 -2.66445,2.55787 0,1.48499 1.13683,2.55787 2.65735,2.55787 z"
         style="font-weight:600;font-family:Montserrat;-inkscape-font-specification:'Montserrat Semi-Bold'"
         id="path1609" /><path
         d="m 165.71961,141.09112 c -0.52578,0 -0.97341,0.17053 -1.26473,0.48316 v -1.91841 h -0.88815 v 5.27206 h 0.88815 v -1.9184 c 0,-0.76026 0.42632,-1.14394 1.05868,-1.14394 0.56842,0 0.90236,0.32684 0.90236,1.00183 v 2.06051 h 0.88815 v -2.17419 c 0,-1.14394 -0.67499,-1.66262 -1.58446,-1.66262 z"
         style="font-weight:600;font-family:Montserrat;-inkscape-font-specification:'Montserrat Semi-Bold'"
         id="path1611" /><path
         d="m 169.88325,141.09112 c -0.61104,0 -1.20078,0.15632 -1.60577,0.46895 l 0.34815,0.64657 c 0.28421,-0.23447 0.72473,-0.37657 1.15104,-0.37657 0.63237,0 0.945,0.30552 0.945,0.8242 v 0.0568 h -0.98052 c -1.15104,0 -1.57736,0.49736 -1.57736,1.12973 0,0.66078 0.5471,1.13683 1.41394,1.13683 0.56842,0 0.98052,-0.18474 1.19367,-0.51158 v 0.46184 h 0.83842 v -2.22392 c 0,-1.09421 -0.63237,-1.61289 -1.72657,-1.61289 z m -0.12079,3.23998 c -0.45473,0 -0.72473,-0.20605 -0.72473,-0.52579 0,-0.2771 0.16342,-0.50447 0.76737,-0.50447 h 0.91657 v 0.44052 c -0.14921,0.39079 -0.52579,0.58974 -0.95921,0.58974 z"
         style="font-weight:600;font-family:Montserrat;-inkscape-font-specification:'Montserrat Semi-Bold'"
         id="path1613" /><path
         d="m 174.89953,141.09112 c -0.55421,0 -1.01605,0.18474 -1.30736,0.53289 v -0.49025 h -0.84552 v 3.79417 h 0.88815 v -1.9184 c 0,-0.76026 0.42631,-1.14394 1.05868,-1.14394 0.56841,0 0.90236,0.32684 0.90236,1.00183 v 2.06051 h 0.88815 v -2.17419 c 0,-1.14394 -0.675,-1.66262 -1.58446,-1.66262 z"
         style="font-weight:600;font-family:Montserrat;-inkscape-font-specification:'Montserrat Semi-Bold'"
         id="path1615" /><path
         d="m 179.76658,141.09112 c -0.5542,0 -1.01604,0.18474 -1.30735,0.53289 v -0.49025 h -0.84552 v 3.79417 h 0.88815 v -1.9184 c 0,-0.76026 0.42631,-1.14394 1.05867,-1.14394 0.56842,0 0.90236,0.32684 0.90236,1.00183 v 2.06051 h 0.88815 v -2.17419 c 0,-1.14394 -0.67499,-1.66262 -1.58446,-1.66262 z"
         style="font-weight:600;font-family:Montserrat;-inkscape-font-specification:'Montserrat Semi-Bold'"
         id="path1617" /><path
         d="m 186.05468,143.05216 c 0,-1.18657 -0.80999,-1.96104 -1.9184,-1.96104 -1.12973,0 -1.96104,0.81 -1.96104,1.93972 0,1.12973 0.8242,1.94683 2.09603,1.94683 0.65368,0 1.18657,-0.21316 1.52762,-0.61815 l -0.47605,-0.5471 c -0.26999,0.2771 -0.60394,0.4121 -1.03025,0.4121 -0.66078,0 -1.12262,-0.35526 -1.2292,-0.90947 h 2.97708 c 0.007,-0.0853 0.0142,-0.19184 0.0142,-0.26289 z m -1.9184,-1.25052 c 0.58262,0 1.00183,0.37658 1.07288,0.92368 h -2.15287 c 0.0853,-0.5542 0.50446,-0.92368 1.07999,-0.92368 z"
         style="font-weight:600;font-family:Montserrat;-inkscape-font-specification:'Montserrat Semi-Bold'"
         id="path1619" /><path
         d="m 186.9073,144.92793 h 0.88815 v -5.27206 h -0.88815 z"
         style="font-weight:600;font-family:Montserrat;-inkscape-font-specification:'Montserrat Semi-Bold'"
         id="path1621" /><path
         d="m 77.309665,154.12439 c 0.817098,0 1.513407,-0.29131 1.975245,-0.83131 l -0.596837,-0.56841 c -0.362365,0.39789 -0.809992,0.58973 -1.328672,0.58973 -1.030254,0 -1.7763,-0.72473 -1.7763,-1.74788 0,-1.02315 0.746046,-1.74788 1.7763,-1.74788 0.51868,0 0.966307,0.19184 1.328672,0.58263 l 0.596837,-0.56131 c -0.461838,-0.54 -1.158147,-0.83131 -1.96814,-0.83131 -1.527618,0 -2.66445,1.07288 -2.66445,2.55787 0,1.48499 1.136832,2.55787 2.657345,2.55787 z"
         style="font-weight:600;font-family:Montserrat;-inkscape-font-specification:'Montserrat Semi-Bold'"
         id="path1623" /><path
         d="m 82.240668,150.21653 c -0.525784,0 -0.973412,0.17053 -1.264725,0.48315 v -1.9184 h -0.88815 v 5.27206 h 0.88815 v -1.9184 c 0,-0.76026 0.426312,-1.14394 1.058675,-1.14394 0.568416,0 0.90236,0.32684 0.90236,1.00183 v 2.06051 h 0.88815 v -2.17419 c 0,-1.14394 -0.674994,-1.66262 -1.58446,-1.66262 z"
         style="font-weight:600;font-family:Montserrat;-inkscape-font-specification:'Montserrat Semi-Bold'"
         id="path1625" /><path
         d="m 86.404312,150.21653 c -0.611047,0 -1.200779,0.15632 -1.605775,0.46894 l 0.348155,0.64658 c 0.284208,-0.23447 0.72473,-0.37658 1.151042,-0.37658 0.632363,0 0.944992,0.30553 0.944992,0.82421 v 0.0568 h -0.980518 c -1.151042,0 -1.577354,0.49736 -1.577354,1.12972 0,0.66079 0.5471,1.13684 1.413934,1.13684 0.568416,0 0.980518,-0.18474 1.193674,-0.51158 v 0.46184 h 0.838414 v -2.22393 c 0,-1.0942 -0.632363,-1.61288 -1.726564,-1.61288 z m -0.120788,3.23997 c -0.454733,0 -0.724731,-0.20605 -0.724731,-0.52578 0,-0.27711 0.16342,-0.50447 0.767362,-0.50447 h 0.916571 v 0.44052 c -0.14921,0.39079 -0.525785,0.58973 -0.959202,0.58973 z"
         style="font-weight:600;font-family:Montserrat;-inkscape-font-specification:'Montserrat Semi-Bold'"
         id="path1627" /><path
         d="m 90.113229,150.81337 v -0.55421 H 89.26771 v 3.79418 h 0.88815 v -1.84025 c 0,-0.77446 0.426312,-1.17236 1.101306,-1.17236 0.06395,0 0.127893,0.007 0.206051,0.0213 v -0.84552 c -0.632363,0 -1.094201,0.19895 -1.349988,0.59684 z"
         style="font-weight:600;font-family:Montserrat;-inkscape-font-specification:'Montserrat Semi-Bold'"
         id="path1629" /><path
         d="m 93.395838,150.21653 c -0.611048,0 -1.200779,0.15632 -1.605776,0.46894 l 0.348155,0.64658 c 0.284208,-0.23447 0.724731,-0.37658 1.151043,-0.37658 0.632362,0 0.944991,0.30553 0.944991,0.82421 v 0.0568 h -0.980517 c -1.151043,0 -1.577355,0.49736 -1.577355,1.12972 0,0.66079 0.547101,1.13684 1.413935,1.13684 0.568416,0 0.980518,-0.18474 1.193674,-0.51158 v 0.46184 h 0.838413 v -2.22393 c 0,-1.0942 -0.632363,-1.61288 -1.726563,-1.61288 z m -0.120789,3.23997 c -0.454733,0 -0.72473,-0.20605 -0.72473,-0.52578 0,-0.27711 0.163419,-0.50447 0.767361,-0.50447 h 0.916571 v 0.44052 c -0.149209,0.39079 -0.525785,0.58973 -0.959202,0.58973 z"
         style="font-weight:600;font-family:Montserrat;-inkscape-font-specification:'Montserrat Semi-Bold'"
         id="path1631" /><path
         d="m 98.00711,154.10308 c 0.738941,0 1.328673,-0.31974 1.619986,-0.88815 l -0.682099,-0.3979 c -0.227367,0.36237 -0.568416,0.52579 -0.944992,0.52579 -0.653678,0 -1.151042,-0.44763 -1.151042,-1.18657 0,-0.73183 0.497364,-1.18657 1.151042,-1.18657 0.376576,0 0.717625,0.16342 0.944992,0.52579 l 0.682099,-0.39789 c -0.291313,-0.57553 -0.881045,-0.88105 -1.619986,-0.88105 -1.200778,0 -2.053402,0.80289 -2.053402,1.93972 0,1.13683 0.852624,1.94683 2.053402,1.94683 z"
         style="font-weight:600;font-family:Montserrat;-inkscape-font-specification:'Montserrat Semi-Bold'"
         id="path1633" /><path
         d="m 102.47628,153.21493 c -0.135,0.10657 -0.31263,0.15631 -0.49737,0.15631 -0.34105,0 -0.52578,-0.19895 -0.52578,-0.56842 v -1.80472 h 1.01604 v -0.71052 h -1.01604 v -0.86683 h -0.88815 v 0.86683 h -0.62526 v 0.71052 h 0.62526 v 1.82604 c 0,0.83841 0.47605,1.27894 1.30735,1.27894 0.31974,0 0.63947,-0.0853 0.85263,-0.25579 z"
         style="font-weight:600;font-family:Montserrat;-inkscape-font-specification:'Montserrat Semi-Bold'"
         id="path1635" /><path
         d="m 106.89571,152.17757 c 0,-1.18657 -0.80999,-1.96104 -1.9184,-1.96104 -1.12973,0 -1.96104,0.80999 -1.96104,1.93972 0,1.12973 0.82421,1.94683 2.09604,1.94683 0.65367,0 1.18656,-0.21316 1.52761,-0.61816 l -0.47604,-0.5471 c -0.27,0.27711 -0.60395,0.4121 -1.03026,0.4121 -0.66078,0 -1.12262,-0.35526 -1.2292,-0.90946 h 2.97708 c 0.007,-0.0853 0.0142,-0.19184 0.0142,-0.26289 z m -1.9184,-1.25052 c 0.58262,0 1.00183,0.37658 1.07288,0.92368 h -2.15287 c 0.0853,-0.55421 0.50447,-0.92368 1.07999,-0.92368 z"
         style="font-weight:600;font-family:Montserrat;-inkscape-font-specification:'Montserrat Semi-Bold'"
         id="path1637" /><path
         d="m 108.59385,150.81337 v -0.55421 h -0.84552 v 3.79418 h 0.88815 v -1.84025 c 0,-0.77446 0.42631,-1.17236 1.10131,-1.17236 0.0639,0 0.12789,0.007 0.20605,0.0213 v -0.84552 c -0.63236,0 -1.0942,0.19895 -1.34999,0.59684 z"
         style="font-weight:600;font-family:Montserrat;-inkscape-font-specification:'Montserrat Semi-Bold'"
         id="path1639" /><path
         d="m 111.14463,149.6339 c 0.33394,0 0.56841,-0.24157 0.56841,-0.5542 0,-0.29131 -0.24157,-0.51158 -0.56841,-0.51158 -0.32684,0 -0.56842,0.23448 -0.56842,0.53289 0,0.29842 0.24158,0.53289 0.56842,0.53289 z m -0.44763,4.41944 h 0.88815 v -3.79418 H 110.697 Z"
         style="font-weight:600;font-family:Montserrat;-inkscape-font-specification:'Montserrat Semi-Bold'"
         id="path1641" /><path
         d="m 113.92275,154.10308 c 1.06578,0 1.71946,-0.46184 1.71946,-1.17236 0,-1.48499 -2.34471,-0.80289 -2.34471,-1.57025 0,-0.24868 0.25578,-0.42631 0.79578,-0.42631 0.36236,0 0.72473,0.0711 1.0871,0.2842 l 0.34104,-0.67499 c -0.34104,-0.20605 -0.91657,-0.32684 -1.42104,-0.32684 -1.02314,0 -1.66972,0.46894 -1.66972,1.18657 0,1.51341 2.34472,0.83131 2.34472,1.55604 0,0.26289 -0.23447,0.41921 -0.79578,0.41921 -0.47605,0 -0.98763,-0.15632 -1.32157,-0.37658 l -0.34105,0.67499 c 0.34105,0.24158 0.97341,0.42632 1.60577,0.42632 z"
         style="font-weight:600;font-family:Montserrat;-inkscape-font-specification:'Montserrat Semi-Bold'"
         id="path1643" /><path
         d="m 117.85903,150.21653 c -0.61104,0 -1.20078,0.15632 -1.60577,0.46894 l 0.34815,0.64658 c 0.28421,-0.23447 0.72473,-0.37658 1.15105,-0.37658 0.63236,0 0.94499,0.30553 0.94499,0.82421 v 0.0568 h -0.98052 c -1.15104,0 -1.57735,0.49736 -1.57735,1.12972 0,0.66079 0.5471,1.13684 1.41393,1.13684 0.56842,0 0.98052,-0.18474 1.19367,-0.51158 v 0.46184 h 0.83842 v -2.22393 c 0,-1.0942 -0.63237,-1.61288 -1.72657,-1.61288 z m -0.12078,3.23997 c -0.45474,0 -0.72474,-0.20605 -0.72474,-0.52578 0,-0.27711 0.16342,-0.50447 0.76737,-0.50447 h 0.91657 v 0.44052 c -0.14921,0.39079 -0.52579,0.58973 -0.9592,0.58973 z"
         style="font-weight:600;font-family:Montserrat;-inkscape-font-specification:'Montserrat Semi-Bold'"
         id="path1645" /><path
         d="m 122.75452,153.21493 c -0.135,0.10657 -0.31263,0.15631 -0.49737,0.15631 -0.34105,0 -0.52578,-0.19895 -0.52578,-0.56842 v -1.80472 h 1.01604 v -0.71052 h -1.01604 v -0.86683 h -0.88815 v 0.86683 h -0.62526 v 0.71052 h 0.62526 v 1.82604 c 0,0.83841 0.47605,1.27894 1.30736,1.27894 0.31973,0 0.63946,-0.0853 0.85262,-0.25579 z"
         style="font-weight:600;font-family:Montserrat;-inkscape-font-specification:'Montserrat Semi-Bold'"
         id="path1647" /><path
         d="m 124.18266,149.6339 c 0.33394,0 0.56841,-0.24157 0.56841,-0.5542 0,-0.29131 -0.24157,-0.51158 -0.56841,-0.51158 -0.32684,0 -0.56842,0.23448 -0.56842,0.53289 0,0.29842 0.24158,0.53289 0.56842,0.53289 z m -0.44763,4.41944 h 0.88815 v -3.79418 h -0.88815 z"
         style="font-weight:600;font-family:Montserrat;-inkscape-font-specification:'Montserrat Semi-Bold'"
         id="path1649" /><path
         d="m 127.49368,154.10308 c 1.17946,0 2.02498,-0.81 2.02498,-1.94683 0,-1.13683 -0.84552,-1.93972 -2.02498,-1.93972 -1.16525,0 -2.01788,0.80289 -2.01788,1.93972 0,1.13683 0.85263,1.94683 2.01788,1.94683 z m 0,-0.76026 c -0.63947,0 -1.12262,-0.46184 -1.12262,-1.18657 0,-0.72473 0.48315,-1.18657 1.12262,-1.18657 0.64657,0 1.12973,0.46184 1.12973,1.18657 0,0.72473 -0.48316,1.18657 -1.12973,1.18657 z"
         style="font-weight:600;font-family:Montserrat;-inkscape-font-specification:'Montserrat Semi-Bold'"
         id="path1651" /><path
         d="m 132.52416,150.21653 c -0.5542,0 -1.01604,0.18474 -1.30735,0.53289 v -0.49026 h -0.84552 v 3.79418 h 0.88815 v -1.9184 c 0,-0.76026 0.42631,-1.14394 1.05867,-1.14394 0.56842,0 0.90236,0.32684 0.90236,1.00183 v 2.06051 h 0.88815 v -2.17419 c 0,-1.14394 -0.67499,-1.66262 -1.58446,-1.66262 z"
         style="font-weight:600;font-family:Montserrat;-inkscape-font-specification:'Montserrat Semi-Bold'"
         id="path1653" /><path
         d="m 139.33094,149.0797 h -2.0463 v 4.97364 h 0.92367 v -1.43525 h 1.12263 c 1.30735,0 2.11734,-0.675 2.11734,-1.7692 0,-1.1013 -0.80999,-1.76919 -2.11734,-1.76919 z m -0.0426,2.75682 h -1.07999 v -1.97525 h 1.07999 c 0.81,0 1.2292,0.36237 1.2292,0.98762 0,0.62526 -0.4192,0.98763 -1.2292,0.98763 z"
         style="font-weight:600;font-family:Montserrat;-inkscape-font-specification:'Montserrat Semi-Bold'"
         id="path1655" /><path
         d="m 142.35775,154.05334 h 0.88815 v -5.27206 h -0.88815 z"
         style="font-weight:600;font-family:Montserrat;-inkscape-font-specification:'Montserrat Semi-Bold'"
         id="path1657" /><path
         d="m 145.86061,150.21653 c -0.61105,0 -1.20078,0.15632 -1.60578,0.46894 l 0.34816,0.64658 c 0.28421,-0.23447 0.72473,-0.37658 1.15104,-0.37658 0.63236,0 0.94499,0.30553 0.94499,0.82421 v 0.0568 h -0.98052 c -1.15104,0 -1.57735,0.49736 -1.57735,1.12972 0,0.66079 0.5471,1.13684 1.41394,1.13684 0.56841,0 0.98051,-0.18474 1.19367,-0.51158 v 0.46184 h 0.83841 v -2.22393 c 0,-1.0942 -0.63236,-1.61288 -1.72656,-1.61288 z m -0.12079,3.23997 c -0.45473,0 -0.72473,-0.20605 -0.72473,-0.52578 0,-0.27711 0.16342,-0.50447 0.76736,-0.50447 h 0.91657 v 0.44052 c -0.14921,0.39079 -0.52578,0.58973 -0.9592,0.58973 z"
         style="font-weight:600;font-family:Montserrat;-inkscape-font-specification:'Montserrat Semi-Bold'"
         id="path1659" /><path
         d="m 150.75609,153.21493 c -0.13499,0.10657 -0.31262,0.15631 -0.49736,0.15631 -0.34105,0 -0.52578,-0.19895 -0.52578,-0.56842 v -1.80472 h 1.01604 v -0.71052 h -1.01604 v -0.86683 h -0.88815 v 0.86683 h -0.62526 v 0.71052 h 0.62526 v 1.82604 c 0,0.83841 0.47604,1.27894 1.30735,1.27894 0.31974,0 0.63947,-0.0853 0.85263,-0.25579 z"
         style="font-weight:600;font-family:Montserrat;-inkscape-font-specification:'Montserrat Semi-Bold'"
         id="path1661" /><path
         d="m 153.27844,149.44917 c 0.18473,0 0.35526,0.0639 0.49026,0.15631 l 0.24868,-0.66788 c -0.19895,-0.14211 -0.49736,-0.20606 -0.80289,-0.20606 -0.88104,0 -1.35709,0.51868 -1.35709,1.31447 v 0.24157 h -0.62526 v 0.71052 h 0.62526 v 3.05524 h 0.88815 v -3.05524 h 1.01604 v -0.71052 h -1.04446 v -0.22736 c 0,-0.405 0.19184,-0.61105 0.56131,-0.61105 z"
         style="font-weight:600;font-family:Montserrat;-inkscape-font-specification:'Montserrat Semi-Bold'"
         id="path1663" /><path
         d="m 156.00684,154.10308 c 1.17946,0 2.02498,-0.81 2.02498,-1.94683 0,-1.13683 -0.84552,-1.93972 -2.02498,-1.93972 -1.16525,0 -2.01788,0.80289 -2.01788,1.93972 0,1.13683 0.85263,1.94683 2.01788,1.94683 z m 0,-0.76026 c -0.63947,0 -1.12262,-0.46184 -1.12262,-1.18657 0,-0.72473 0.48315,-1.18657 1.12262,-1.18657 0.64657,0 1.12972,0.46184 1.12972,1.18657 0,0.72473 -0.48315,1.18657 -1.12972,1.18657 z"
         style="font-weight:600;font-family:Montserrat;-inkscape-font-specification:'Montserrat Semi-Bold'"
         id="path1665" /><path
         d="m 159.72996,150.81337 v -0.55421 h -0.84551 v 3.79418 h 0.88815 v -1.84025 c 0,-0.77446 0.42631,-1.17236 1.1013,-1.17236 0.064,0 0.12789,0.007 0.20605,0.0213 v -0.84552 c -0.63236,0 -1.0942,0.19895 -1.34999,0.59684 z"
         style="font-weight:600;font-family:Montserrat;-inkscape-font-specification:'Montserrat Semi-Bold'"
         id="path1667" /><path
         d="m 166.62202,150.21653 c -0.60394,0 -1.11552,0.24158 -1.42104,0.63236 -0.26289,-0.42631 -0.72473,-0.63236 -1.27894,-0.63236 -0.51868,0 -0.9592,0.18474 -1.24341,0.52579 v -0.48316 h -0.84552 v 3.79418 h 0.88815 v -1.92551 c 0,-0.75315 0.3979,-1.13683 0.98763,-1.13683 0.53999,0 0.85262,0.32684 0.85262,1.00183 v 2.06051 h 0.88815 v -1.92551 c 0,-0.75315 0.405,-1.13683 0.98762,-1.13683 0.54,0 0.85263,0.32684 0.85263,1.00183 v 2.06051 h 0.88815 v -2.17419 c 0,-1.14394 -0.63947,-1.66262 -1.55604,-1.66262 z"
         style="font-weight:600;font-family:Montserrat;-inkscape-font-specification:'Montserrat Semi-Bold'"
         id="path1669" /></g></g></svg>
