<?xml version="1.0" encoding="UTF-8" standalone="no"?>
<svg
   width="64mm"
   height="64mm"
   viewBox="0 0 64 64"
   version="1.1"
   id="svg8"
   sodipodi:docname="arc2-logo.svg"
   inkscape:version="1.1 (c4e8f9ed74, 2021-05-24)"
   inkscape:export-filename="/tmp/arc2-logo.png"
   inkscape:export-xdpi="300"
   inkscape:export-ydpi="300"
   xmlns:inkscape="http://www.inkscape.org/namespaces/inkscape"
   xmlns:sodipodi="http://sodipodi.sourceforge.net/DTD/sodipodi-0.dtd"
   xmlns:xlink="http://www.w3.org/1999/xlink"
   xmlns="http://www.w3.org/2000/svg"
   xmlns:svg="http://www.w3.org/2000/svg"
   xmlns:rdf="http://www.w3.org/1999/02/22-rdf-syntax-ns#"
   xmlns:cc="http://creativecommons.org/ns#"
   xmlns:dc="http://purl.org/dc/elements/1.1/">
  <sodipodi:namedview
     id="namedview17"
     pagecolor="#ffffff"
     bordercolor="#666666"
     borderopacity="1.0"
     inkscape:pageshadow="2"
     inkscape:pageopacity="1"
     inkscape:pagecheckerboard="0"
     inkscape:document-units="mm"
     showgrid="false"
     inkscape:zoom="0.72297469"
     inkscape:cx="384.52245"
     inkscape:cy="181.88742"
     inkscape:window-width="1920"
     inkscape:window-height="1011"
     inkscape:window-x="0"
     inkscape:window-y="0"
     inkscape:window-maximized="1"
     inkscape:current-layer="svg8"
     showguides="true"
     inkscape:guide-bbox="true">
    <sodipodi:guide
       position="55.626658,25.024741"
       orientation="0.70710678,-0.70710678"
       id="guide39216" />
  </sodipodi:namedview>
  <defs
     id="defs2">
    <linearGradient
       id="linearGradient40444">
      <stop
         id="stop40440"
         offset="0"
         style="stop-color:#003398;stop-opacity:0.85882354" />
      <stop
         id="stop40442"
         offset="1"
         style="stop-color:#002060;stop-opacity:1;" />
    </linearGradient>
    <linearGradient
       id="linearGradient40246">
      <stop
         id="stop40242"
         offset="0"
         style="stop-color:#ffffff;stop-opacity:1" />
      <stop
         id="stop40244"
         offset="1"
         style="stop-color:#002060;stop-opacity:1;" />
    </linearGradient>
    <linearGradient
       id="linearGradient2299">
      <stop
         id="stop39529"
         offset="0"
         style="stop-color:#002060;stop-opacity:0.85858583" />
      <stop
         id="stop39531"
         offset="1"
         style="stop-color:#002060;stop-opacity:1;" />
    </linearGradient>
    <linearGradient
       id="2300">
      <stop
         id="stop2297"
         offset="0"
         style="stop-color:#002060;stop-opacity:0.85858583" />
      <stop
         id="stop2295"
         offset="1"
         style="stop-color:#002060;stop-opacity:1;" />
    </linearGradient>
    <radialGradient
       xlink:href="#2300"
       id="radialGradient2307"
       cx="105.0006"
       cy="148.50002"
       fx="105.0006"
       fy="148.50002"
       r="105.0006"
       gradientTransform="matrix(1.282963,-1.1606819e-8,1.4743468e-8,1.6296734,-29.711881,-93.506521)"
       gradientUnits="userSpaceOnUse" />
    <radialGradient
       inkscape:collect="always"
       xlink:href="#linearGradient40444"
       id="radialGradient39558"
       cx="31.489901"
       cy="31.506184"
       fx="31.525293"
       fy="40.325821"
       r="32"
       gradientUnits="userSpaceOnUse"
       gradientTransform="matrix(1,0,0,0.98442661,0,0.49065801)" />
  </defs>
  <metadata
     id="metadata5">
    <rdf:RDF>
      <cc:Work
         rdf:about="">
        <dc:format>image/svg+xml</dc:format>
        <dc:type
           rdf:resource="http://purl.org/dc/dcmitype/StillImage" />
      </cc:Work>
    </rdf:RDF>
  </metadata>
  <rect
     style="mix-blend-mode:normal;fill:url(#radialGradient39558);fill-opacity:1;stroke:none;stroke-width:1.81747"
     id="rect872"
     width="64"
     height="64"
     x="1.7763568e-15"
     y="-2.6645353e-15" />
  <g
     style="fill:#ffffff;fill-opacity:1;stroke:none;stroke-opacity:1"
     transform="matrix(0.88684068,0,0,0.88684068,-16.392983,-9.4785494)"
     id="g3897">
    <path
       d="m 81.659731,34.766124 c -1.481104,-3.501377 -3.600742,-6.645611 -6.299462,-9.345963 -2.700351,-2.699537 -5.8454,-4.819177 -9.345964,-6.300278 -3.62721,-1.534855 -7.478397,-2.31226 -11.446868,-2.31226 -3.967657,0 -7.819659,0.777405 -11.446055,2.31226 -3.501377,1.481101 -6.645204,3.600741 -9.345556,6.300278 -2.69913,2.700352 -4.819177,5.844994 -6.29987,9.345963 -1.534449,3.626396 -2.312668,7.477177 -2.312668,11.445648 v 23.430061 h 5.00121 V 46.212179 c 0,-3.295317 0.645869,-6.490455 1.916839,-9.498267 1.229024,-2.904782 2.989079,-5.515543 5.231295,-7.756945 2.240588,-2.241809 4.851349,-4.002271 7.756945,-5.230888 3.007405,-1.272192 6.202543,-1.917246 9.49786,-1.917246 3.295317,0 6.49127,0.645054 9.498265,1.917246 2.905597,1.228617 5.515139,2.989079 7.758166,5.230888 2.241407,2.241402 4.001871,4.852163 5.231296,7.756945 1.270967,3.007812 1.915211,6.20295 1.915211,9.498267 v 23.430062 h 5.002023 V 46.212179 c 0,-3.968471 -0.779443,-7.819252 -2.312667,-11.446055"
       id="path3063"
       style="fill:#ffffff;fill-opacity:1;stroke:none;stroke-opacity:1" />
    <path
       d="m 62.833827,27.173293 c -2.614017,-1.135361 -5.394594,-1.712001 -8.265983,-1.712001 -2.800123,0 -5.517172,0.548541 -8.077436,1.632184 -2.471896,1.044141 -4.6909,2.54031 -6.595521,4.445338 -1.905436,1.905436 -3.40079,4.124033 -4.446153,6.595521 -1.082829,2.559043 -1.63137,5.27772 -1.63137,8.077844 v 19.922578 l 4.999988,-4.804923 V 46.212179 c 0,-2.128192 0.416598,-4.189597 1.237577,-6.129648 0.793287,-1.875708 1.929055,-3.560425 3.376763,-5.006911 1.446486,-1.447708 3.131203,-2.583884 5.006504,-3.376357 1.940458,-0.821386 4.002678,-1.237576 6.129648,-1.237576 2.180317,0 4.290591,0.43696 6.271365,1.298254 1.916021,0.831974 3.623954,2.021497 5.079396,3.533548 l 3.603591,-3.466355 c -1.914799,-1.991769 -4.164755,-3.55676 -6.688369,-4.653841"
       id="path3065"
       style="fill:#ffffff;fill-opacity:1;stroke:none;stroke-opacity:1" />
    <polygon
       points="136.094,13.01 136.094,14.317 134.209,14.317 134.209,19.88 132.648,19.88 132.648,14.317 130.762,14.317 130.762,13.01 "
       id="polygon3067"
       transform="matrix(0.40723148,0,0,0.40723148,23.521738,15.817643)"
       style="fill:#ffffff;fill-opacity:1;stroke:none;stroke-opacity:1" />
    <path
       d="m 79.164622,21.115725 h 0.669081 l 0.467503,1.256716 0.1686,0.489085 h 0.0167 l 0.16696,-0.489085 0.455693,-1.256716 h 0.663385 v 2.79768 h -0.586821 v -1.026223 c 0,-0.06882 0.0015,-0.14416 0.0082,-0.227236 0.0057,-0.08308 0.01262,-0.167372 0.02242,-0.251261 0.0085,-0.08348 0.0167,-0.167372 0.02565,-0.248819 0.0082,-0.08185 0.01586,-0.156377 0.02565,-0.225199 h -0.01749 l -0.231306,0.647906 -0.428819,1.084864 h -0.253702 l -0.428813,-1.084864 -0.222757,-0.647906 h -0.01834 c 0.01019,0.06882 0.01834,0.143346 0.02689,0.225199 0.0085,0.08145 0.01591,0.165336 0.02321,0.248819 0.0074,0.08389 0.01342,0.168186 0.01993,0.251261 0.0065,0.08267 0.0082,0.158413 0.0082,0.227236 v 1.026223 h -0.579078 v -2.79768 z"
       id="path3069"
       style="fill:#ffffff;fill-opacity:1;stroke:none;stroke-opacity:1" />
    <path
       d="m 59.764932,51.162077 c -1.308842,1.373185 -3.151157,2.232851 -5.197902,2.232851 -3.966842,0 -7.183563,-3.2155 -7.183563,-7.183156 0,-3.967657 3.216313,-7.183563 7.183563,-7.183563 2.025976,0 3.851595,0.840932 5.157993,2.188869 l 3.581192,-3.425224 c -2.207193,-2.29027 -5.305003,-3.718431 -8.739185,-3.718431 -6.703845,0 -12.138349,5.434504 -12.138349,12.138349 0,6.703437 5.434504,12.138348 12.138349,12.138348 3.446807,0 6.555612,-1.438749 8.765658,-3.744493 z"
       id="path3071"
       style="fill:#ffffff;fill-opacity:1;stroke:none;stroke-opacity:1" />
    <path
       d="M 73.724014,38.134335 C 73.241039,36.992051 72.657065,35.907186 71.985947,34.87852 l -3.691959,3.546986 c 0.304609,0.534287 0.583153,1.085271 0.823829,1.657025 0.309494,0.731795 0.560756,1.480286 0.754193,2.242624 h 5.116863 c -0.272028,-1.433863 -0.691075,-2.834739 -1.264859,-4.19082"
       id="path3073"
       style="fill:#ffffff;fill-opacity:1;stroke:none;stroke-opacity:1" />
    <path
       d="m 70.350915,46.050101 c 0,0.05375 0.0035,0.107916 0.0035,0.161671 v 15.117655 l 5.00159,4.804923 V 46.212179 c 0,-0.05416 -0.0035,-0.108324 -0.004,-0.161671 h -5.000899 z"
       id="path3075"
       style="fill:#ffffff;fill-opacity:1;stroke:none;stroke-opacity:1" />
  </g>
  <rect
     style="fill:#ff0000;fill-opacity:0.644004;stroke:none;stroke-width:0.896106"
     id="rect12792"
     width="24.245228"
     height="58.87883"
     x="66.842438"
     y="-29.896215"
     transform="rotate(45)" />
  <g
     aria-label="2"
     id="text2004"
     style="font-size:19.6845px;line-height:1.25;fill:#639dff;stroke:#000000;stroke-width:0.25">
    <path
       d="m 55.009122,57.49572 3.169204,-2.992044 c 1.929081,-1.791289 2.303087,-3.011728 2.303087,-4.350274 0,-2.499932 -2.047188,-4.074692 -5.11797,-4.074692 -2.480247,0 -4.409328,1.00391 -5.472291,2.558985 l 2.322771,1.496022 c 0.669273,-0.925171 1.673183,-1.377915 2.854253,-1.377915 1.456653,0 2.204663,0.629904 2.204663,1.712552 0,0.669273 -0.216529,1.377915 -1.436968,2.5393 l -5.314815,5.019548 v 2.066872 h 10.4131 V 57.49572 Z"
       style="font-weight:bold;font-family:Montserrat;-inkscape-font-specification:'Montserrat Bold'"
       id="path41588" />
  </g>
</svg>
